<svg width="2691" height="1718" xmlns="http://www.w3.org/2000/svg" xmlns:xlink="http://www.w3.org/1999/xlink" xml:space="preserve" overflow="hidden"><g transform="translate(-739 -594)"><path d="M743.5 1621.5C743.5 1473.49 891.246 1353.5 1073.5 1353.5 1255.75 1353.5 1403.5 1473.49 1403.5 1621.5 1403.5 1769.51 1255.75 1889.5 1073.5 1889.5 891.246 1889.5 743.5 1769.51 743.5 1621.5Z" stroke="#223F59" stroke-width="9.16667" stroke-linejoin="round" stroke-miterlimit="10" fill="#5B9BD5" fill-rule="evenodd"/><text fill="#FFFFFF" font-family="Arial,Arial_MSFontService,sans-serif" font-weight="400" font-size="92" transform="matrix(1 0 0 1 919.818 1655)">System</text><path d="M1526.5 867C1526.5 718.711 1674.25 598.5 1856.5 598.5 2038.75 598.5 2186.5 718.711 2186.5 867 2186.5 1015.29 2038.75 1135.5 1856.5 1135.5 1674.25 1135.5 1526.5 1015.29 1526.5 867Z" stroke="#2B4719" stroke-width="9.16667" stroke-linejoin="round" stroke-miterlimit="10" fill="#70AD47" fill-rule="evenodd"/><text fill="#FFFFFF" font-family="Arial,Arial_MSFontService,sans-serif" font-weight="400" font-size="92" transform="matrix(1 0 0 1 1710.33 901)">Sensor</text><path d="M1979.5 2039.5C1979.5 1891.49 2127.25 1771.5 2309.5 1771.5 2491.75 1771.5 2639.5 1891.49 2639.5 2039.5 2639.5 2187.51 2491.75 2307.5 2309.5 2307.5 2127.25 2307.5 1979.5 2187.51 1979.5 2039.5Z" stroke="#64310F" stroke-width="9.16667" stroke-linejoin="round" stroke-miterlimit="10" fill="#ED7D31" fill-rule="evenodd"/><text fill="#FFFFFF" font-family="Arial,Arial_MSFontService,sans-serif" font-weight="400" font-size="92" transform="matrix(1 0 0 1 2138.18 2073)">Actuator</text><path d="M2765.5 1238C2765.5 1089.71 2913.25 969.5 3095.5 969.5 3277.75 969.5 3425.5 1089.71 3425.5 1238 3425.5 1386.29 3277.75 1506.5 3095.5 1506.5 2913.25 1506.5 2765.5 1386.29 2765.5 1238Z" stroke="#172C51" stroke-width="9.16667" stroke-linejoin="round" stroke-miterlimit="10" fill="#4472C4" fill-rule="evenodd"/><text fill="#FFFFFF" font-family="Arial,Arial_MSFontService,sans-serif" font-weight="400" font-size="92" transform="matrix(1 0 0 1 2947.31 1272)">Control</text><path d="M2186 860.125 3095.56 860.125C3099.36 860.125 3102.44 863.203 3102.44 867L3102.44 935.298 3088.69 935.298 3088.69 867 3095.56 873.875 2186 873.875ZM3116.19 928.423 3095.56 969.673 3074.94 928.423Z" fill="#A1A1A1"/><path d="M3102.38 1506 3102.38 2039.31C3102.38 2043.11 3099.3 2046.19 3095.5 2046.19L2673.38 2046.19 2673.38 2032.44 3095.5 2032.44 3088.62 2039.31 3088.62 1506ZM2680.25 2059.94 2639 2039.31 2680.25 2018.69Z" fill="#A1A1A1"/><path d="M1979.12 2045.66 1073 2045.66C1069.2 2045.66 1066.12 2042.58 1066.12 2038.78L1066.12 1923.37 1079.87 1923.37 1079.87 2038.78 1073 2031.91 1979.12 2031.91ZM1052.37 1930.25 1073 1889 1093.62 1930.25Z" fill="#A1A1A1"/><path d="M1066.12 1353.2 1066.12 867C1066.12 863.203 1069.2 860.125 1073 860.125L1491.69 860.125 1491.69 873.875 1073 873.875 1079.88 867 1079.88 1353.2ZM1484.81 846.375 1526.06 867 1484.81 887.625Z" fill="#A1A1A1"/></g></svg>